<?xml version="1.0" encoding="UTF-8" standalone="no"?>
<!-- Created with Inkscape (http://www.inkscape.org/) -->
<svg xmlns:dc="http://purl.org/dc/elements/1.1/" xmlns:cc="http://creativecommons.org/ns#" xmlns:rdf="http://www.w3.org/1999/02/22-rdf-syntax-ns#" xmlns:svg="http://www.w3.org/2000/svg" xmlns="http://www.w3.org/2000/svg" xmlns:sodipodi="http://sodipodi.sourceforge.net/DTD/sodipodi-0.dtd" xmlns:inkscape="http://www.inkscape.org/namespaces/inkscape" width="650" height="100" id="svg2" version="1.1" inkscape:version="0.48.4 r9939" sodipodi:docname="headerlogo.svg">
  <defs id="defs4"/>
  <sodipodi:namedview id="base" pagecolor="#ffffff" bordercolor="#666666" borderopacity="1.0" inkscape:pageopacity="0" inkscape:pageshadow="2" inkscape:zoom="1" inkscape:cx="452.92341" inkscape:cy="40.254257" inkscape:document-units="px" inkscape:current-layer="layer1" showgrid="false" inkscape:window-width="1680" inkscape:window-height="1028" inkscape:window-x="1672" inkscape:window-y="-8" inkscape:window-maximized="1">
    <inkscape:grid type="xygrid" id="grid3030" empspacing="5" visible="true" enabled="true" snapvisiblegridlinesonly="true"/>
  </sodipodi:namedview>
  <metadata id="metadata7">
    <rdf:RDF>
      <cc:Work rdf:about="">
        <dc:format>image/svg+xml</dc:format>
        <dc:type rdf:resource="http://purl.org/dc/dcmitype/StillImage"/>
        <dc:title/>
      </cc:Work>
    </rdf:RDF>
  </metadata>
  <g inkscape:label="Layer 1" inkscape:groupmode="layer" id="layer1" transform="translate(0,-952.36218)">
    <g id="g3069">
      <rect y="952.36218" x="0" height="100" width="650" id="rect2985" style="fill:#000000;fill-opacity:1;stroke:none"/>
      <g id="text2987" style="font-size:11.82143116px;font-style:normal;font-variant:normal;font-weight:normal;font-stretch:normal;text-align:center;line-height:125%;letter-spacing:0px;word-spacing:0px;text-anchor:middle;fill:#000000;fill-opacity:1;stroke:none;font-family:Arial;-inkscape-font-specification:Arial">
        <path id="path3039" style="font-size:85.11430359px;font-weight:bold;fill:#ff0000;font-family:Gisha;-inkscape-font-specification:Gisha Bold" d="m 27.998174,974.5795 c -2.216529,5e-5 -4.031301,-0.65798 -5.444323,-1.97409 -1.413036,-1.316 -2.119551,-2.92991 -2.119546,-4.84171 -5e-6,-1.9671 0.70651,-3.57407 2.119546,-4.82092 1.413022,-1.24673 3.227794,-1.87013 5.444323,-1.87019 2.24421,6e-5 4.065909,0.62346 5.465103,1.87019 1.399158,1.24685 2.098746,2.85382 2.098766,4.82092 -2e-5,1.99492 -0.699608,3.6296 -2.098766,4.90405 -1.399194,1.27455 -3.220893,1.9118 -5.465103,1.91175 z m 6.483316,48.5417 c -1.9e-5,6.2894 -1.537727,11.3181 -4.613129,15.0862 -3.07543,3.7681 -7.508462,5.6521 -13.29911,5.6521 -1.911746,0 -4.003583,-0.4156 -6.275517,-1.2467 l 0,-10.3069 c 1.828631,1.0252 3.449458,1.5377 4.862487,1.5378 4.128262,-10e-5 6.192392,-3.2417 6.192398,-9.725 l 0,-42.80653 13.132871,0 z"/>
        <path id="path3041" style="font-size:85.11430359px;font-weight:bold;fill:#ff0000;font-family:Gisha;-inkscape-font-specification:Gisha Bold" d="m 81.028375,1023.8693 -12.426356,0 0,-6.1093 -0.166239,0 c -2.853793,4.7656 -7.079026,7.1483 -12.675714,7.1483 -4.128277,0 -7.376858,-1.1706 -9.745754,-3.5118 -2.368907,-2.3412 -3.553358,-5.4651 -3.553356,-9.3717 -2e-6,-8.2565 4.890186,-13.02202 14.670581,-14.29654 l 11.553602,-1.53771 c -2.9e-5,-4.65465 -2.521316,-6.982 -7.563869,-6.98203 -5.070302,3e-5 -9.891224,1.51003 -14.462782,4.53001 l 0,-9.89122 c 1.828619,-0.94197 4.329126,-1.77317 7.501529,-2.49358 3.172375,-0.72032 6.060772,-1.08051 8.665201,-1.08055 12.135403,4e-5 18.203116,6.0539 18.203157,18.1616 z m -12.343236,-17.2888 0,-2.8676 -7.730108,0.9974 c -4.266814,0.5541 -6.400211,2.4797 -6.400197,5.7768 -1.4e-5,1.4962 0.519482,2.7222 1.55849,3.678 1.038976,0.9559 2.445078,1.4338 4.218311,1.4338 2.465854,0 4.474572,-0.8519 6.026159,-2.5559 1.551535,-1.7039 2.327316,-3.8581 2.327345,-6.4625 z"/>
        <path id="path3043" style="font-size:85.11430359px;font-weight:bold;fill:#ff0000;font-family:Gisha;-inkscape-font-specification:Gisha Bold" d="m 159.07752,1023.8693 -13.09131,0 0,-24.27085 c -6e-5,-6.17852 -2.27199,-9.26779 -6.81579,-9.26782 -2.16116,3e-5 -3.92052,0.9282 -5.27809,2.7845 -1.35766,1.85636 -2.03647,4.16985 -2.03642,6.94047 l 0,23.8137 -13.13287,0 0,-24.52021 c -4e-5,-6.01228 -2.23041,-9.01843 -6.69112,-9.01846 -2.24425,3e-5 -4.03824,0.88664 -5.38198,2.65982 -1.34379,1.77325 -2.01567,4.18371 -2.01565,7.23135 l 0,23.6475 -13.13287,0 0,-42.55713 13.13287,0 0,6.64956 0.16624,0 c 1.3576,-2.2719 3.26242,-4.1213 5.71446,-5.54823 2.452,-1.42684 5.1326,-2.14028 8.04181,-2.14032 6.01226,4e-5 10.12667,2.64601 12.34323,7.93791 3.24161,-5.2919 8.00712,-7.93787 14.29655,-7.93791 9.25389,4e-5 13.88087,5.70757 13.88094,17.1226 z"/>
        <path id="path3045" style="font-size:85.11430359px;font-weight:bold;fill:#ff0000;font-family:Gisha;-inkscape-font-specification:Gisha Bold" d="m 207.7024,1006.3311 -27.7619,0 c 0.44329,6.1786 4.33605,9.2678 11.67828,9.2678 4.68237,0 8.79677,-1.1082 12.34324,-3.3247 l 0,9.4756 c -3.93436,2.1057 -9.0462,3.1585 -15.33554,3.1585 -6.87122,0 -12.20471,-1.9048 -16.00049,-5.7144 -3.79579,-3.8097 -5.69368,-9.1224 -5.69368,-15.9382 0,-7.06512 2.05028,-12.66182 6.15084,-16.79012 4.10055,-4.12823 9.14312,-6.19236 15.12774,-6.1924 6.20622,4e-5 11.00636,1.84252 14.40044,5.52744 3.394,3.685 5.09102,8.68601 5.09107,15.00308 z m -12.177,-8.06256 c -3e-5,-6.0954 -2.46591,-9.14311 -7.39763,-9.14314 -2.10572,3e-5 -3.92742,0.87279 -5.46511,2.61826 -1.53772,1.74554 -2.47281,3.9205 -2.80528,6.52488 z"/>
        <path id="path3047" style="font-size:85.11430359px;font-weight:bold;fill:#ff0000;font-family:Gisha;-inkscape-font-specification:Gisha Bold" d="m 212.73113,1022.7472 0,-10.6393 c 2.1611,1.3022 4.31527,2.272 6.46253,2.9092 2.14724,0.6373 4.17674,0.9559 6.0885,0.9559 2.32733,0 4.16288,-0.3186 5.50666,-0.9559 1.34374,-0.6372 2.01563,-1.607 2.01565,-2.9092 -2e-5,-0.8312 -0.30479,-1.5238 -0.91431,-2.078 -0.60957,-0.5541 -1.39228,-1.0389 -2.34813,-1.4546 -0.95589,-0.4155 -2.00181,-0.7896 -3.13776,-1.1221 -1.13598,-0.3324 -2.23038,-0.7065 -3.28322,-1.1221 -1.6901,-0.6372 -3.17932,-1.3229 -4.46766,-2.0572 -1.28836,-0.7342 -2.36892,-1.5862 -3.24166,-2.5559 -0.87276,-0.9697 -1.53772,-2.09182 -1.99487,-3.36634 -0.45716,-1.27447 -0.68574,-2.78448 -0.68573,-4.53001 -1e-5,-2.38273 0.51949,-4.433 1.55848,-6.15084 1.03899,-1.71776 2.42431,-3.12387 4.15598,-4.21831 1.73164,-1.09437 3.71265,-1.89785 5.94304,-2.41047 2.23035,-0.51252 4.55077,-0.76881 6.96125,-0.76885 1.88402,4e-5 3.79576,0.1455 5.73524,0.43638 1.93942,0.29096 3.85117,0.71348 5.73524,1.26757 l 0,10.14057 c -1.66242,-0.9697 -3.44256,-1.69699 -5.34042,-2.18189 -1.89792,-0.48483 -3.76118,-0.72726 -5.58978,-0.72729 -0.85893,3e-5 -1.66934,0.0762 -2.43125,0.22858 -0.76195,0.15242 -1.43383,0.37407 -2.01564,0.66495 -0.58186,0.29095 -1.03901,0.66499 -1.37148,1.12211 -0.33249,0.45719 -0.49873,0.97669 -0.49871,1.55849 -2e-5,0.77582 0.24934,1.44077 0.74807,1.99487 0.4987,0.55416 1.1498,1.0321 1.95331,1.43381 0.80347,0.40177 1.697,0.76196 2.6806,1.08055 0.98356,0.31865 1.96021,0.64421 2.92996,0.97666 1.74548,0.60956 3.32475,1.27452 4.73781,1.99486 1.413,0.7204 2.62516,1.5654 3.63648,2.5351 1.01125,0.9698 1.78703,2.1058 2.32734,3.4079 0.54024,1.3023 0.81038,2.8538 0.81041,4.6547 -3e-5,2.5213 -0.54723,4.6755 -1.6416,6.4626 -1.09444,1.787 -2.54903,3.2416 -4.36378,4.3637 -1.8148,1.1222 -3.90663,1.9395 -6.27551,2.4521 -2.36893,0.5125 -4.82788,0.7688 -7.37685,0.7688 -4.68241,0 -9.01847,-0.7204 -13.00819,-2.1611 z"/>
      </g>
      <g id="text2987-1" style="font-size:11.82143116px;font-style:normal;font-variant:normal;font-weight:normal;font-stretch:normal;text-align:center;line-height:125%;letter-spacing:0px;word-spacing:0px;text-anchor:middle;fill:#000000;fill-opacity:1;stroke:none;font-family:Arial;-inkscape-font-specification:Arial">
        <path id="path3059" style="font-size:85.11430359px;font-weight:bold;fill:#ff0000;font-family:Gisha;-inkscape-font-specification:Gisha Bold" d="m 487.83678,982.2219 -12.26012,42.5572 -13.79782,0 -6.27552,-24.93588 c -0.41563,-1.66236 -0.65114,-3.47713 -0.70652,-5.44432 l -0.24936,0 c -0.19397,2.16113 -0.47104,3.92049 -0.83119,5.27808 l -6.73267,25.10212 -13.63159,0 -12.01076,-42.5572 13.38223,0 5.85992,27.7619 c 0.27704,1.3022 0.48484,2.8815 0.62339,4.7378 l 0.24936,0 c 0.13851,-1.9394 0.38787,-3.5741 0.74808,-4.904 l 7.31451,-27.5957 12.50947,0 6.56644,27.7619 c 0.16619,0.6927 0.36014,2.2996 0.58184,4.8209 l 0.29091,0 c 0.13849,-1.6069 0.36014,-3.2139 0.66496,-4.8209 l 5.52744,-27.7619 z"/>
        <path id="path3061" style="font-size:85.11430359px;font-weight:bold;fill:#ff0000;font-family:Gisha;-inkscape-font-specification:Gisha Bold" d="m 534.88238,1024.7791 -13.09131,0 0,-24.1878 c -3e-5,-6.23393 -2.27196,-9.35091 -6.81579,-9.35094 -2.32737,3e-5 -4.21141,0.87279 -5.65212,2.61826 -1.44076,1.74554 -2.16113,3.96206 -2.16111,6.64958 l 0,24.2709 -13.13287,0 0,-63.00458 13.13287,0 0,26.76446 0.16624,0 c 3.21393,-4.90401 7.57769,-7.35603 13.09131,-7.35607 9.64181,4e-5 14.46274,5.8184 14.46278,17.45508 z"/>
        <path id="path3063" style="font-size:85.11430359px;font-weight:bold;fill:#ff0000;font-family:Gisha;-inkscape-font-specification:Gisha Bold" d="m 551.58939,975.48923 c -2.21653,5e-5 -4.0313,-0.65798 -5.44432,-1.97409 -1.41304,-1.31601 -2.11955,-2.92991 -2.11955,-4.84171 0,-1.9671 0.70651,-3.57407 2.11955,-4.82092 1.41302,-1.24673 3.22779,-1.87013 5.44432,-1.87019 2.24421,6e-5 4.06591,0.62346 5.4651,1.87019 1.39916,1.24685 2.09875,2.85382 2.09877,4.82092 -2e-5,1.99492 -0.69961,3.6296 -2.09877,4.90405 -1.39919,1.27455 -3.22089,1.9118 -5.4651,1.91175 z m 6.35864,34.86857 c -2e-5,1.801 0.42943,3.1655 1.28835,4.0937 0.85888,0.9281 2.0087,1.3922 3.44946,1.3922 0.72034,0 1.44071,-0.069 2.1611,-0.2078 0.72034,-0.1385 1.44071,-0.277 2.16111,-0.4156 l 0,9.2263 c -1.5793,0.4156 -3.24861,0.755 -5.00795,1.0182 -1.75938,0.2632 -3.59493,0.3948 -5.50666,0.3948 -1.74552,0 -3.33172,-0.2909 -4.75859,-0.8727 -1.42689,-0.5819 -2.64598,-1.42 -3.65725,-2.5144 -1.0113,-1.0944 -1.79401,-2.4174 -2.34813,-3.969 -0.55413,-1.5515 -0.8312,-3.297 -0.83119,-5.2365 l 0,-31.0451 13.04975,0 z"/>
        <path id="path3065" style="font-size:85.11430359px;font-weight:bold;fill:#ff0000;font-family:Gisha;-inkscape-font-specification:Gisha Bold" d="m 598.21939,1024.2803 c -1.93948,1.0252 -4.86251,1.5377 -8.7691,1.5377 -9.25398,0 -13.88096,-4.807 -13.88095,-14.4212 l 0,-19.49148 -6.89891,0 0,-9.68342 6.89891,0 0,-9.1847 13.09131,-3.74037 0,12.92507 9.55874,0 0,9.68342 -9.55874,0 0,17.20568 c -2e-5,4.4331 1.75934,6.6496 5.27809,6.6496 1.38529,0 2.81218,-0.4017 4.28065,-1.2052 z"/>
        <path id="path3067" style="font-size:85.11430359px;font-weight:bold;fill:#ff0000;font-family:Gisha;-inkscape-font-specification:Gisha Bold" d="m 643.81041,1007.2409 -27.76189,0 c 0.44328,6.1785 4.33604,9.2678 11.67828,9.2678 4.68236,0 8.79677,-1.1083 12.34323,-3.3248 l 0,9.4756 c -3.93435,2.1057 -9.04619,3.1585 -15.33553,3.1585 -6.87123,0 -12.20472,-1.9048 -16.0005,-5.7144 -3.79579,-3.8096 -5.69368,-9.1224 -5.69368,-15.9382 0,-7.06509 2.05028,-12.6618 6.15084,-16.79009 4.10055,-4.12823 9.14312,-6.19236 15.12774,-6.1924 6.20622,4e-5 11.00636,1.84252 14.40044,5.52744 3.394,3.685 5.09102,8.68601 5.09107,15.00305 z m -12.177,-8.06263 c -3e-5,-6.0954 -2.46591,-9.14311 -7.39763,-9.14314 -2.10571,3e-5 -3.92741,0.87279 -5.4651,2.61826 -1.53773,1.74554 -2.47282,3.9205 -2.80528,6.52488 z"/>
      </g>
      <g id="text2991" style="font-size:11.82143115999999900px;font-style:normal;font-variant:normal;font-weight:normal;font-stretch:normal;text-align:center;line-height:125%;letter-spacing:0px;word-spacing:0px;text-anchor:middle;fill:#ffffff;fill-opacity:1;stroke:none;font-family:Arial;-inkscape-font-specification:Arial">
        <path id="path3050" style="font-size:85.11430359000000600px;font-family:Gisha;-inkscape-font-specification:Gisha;fill:#ffffff" d="m 282.85036,988.16958 c -1.19141,-0.91428 -2.90921,-1.37143 -5.1534,-1.37147 -2.90921,4e-5 -5.34045,1.37151 -7.29374,4.11441 -1.95332,2.74297 -2.92997,6.48335 -2.92996,11.22108 l 0,21.6942 -6.81579,0 0,-42.55713 6.81579,0 0,8.7691 0.16624,0 c 0.96972,-2.99226 2.45201,-5.32653 4.44689,-7.00281 1.99485,-1.6762 4.22522,-2.51432 6.69112,-2.51437 1.77319,5e-5 3.1308,0.19399 4.07285,0.58184 z"/>
        <path id="path3052" style="font-size:85.11430359000000600px;font-family:Gisha;-inkscape-font-specification:Gisha;fill:#ffffff" d="m 324.11916,981.27067 -19.57463,49.37293 c -3.49103,8.8107 -8.39507,13.216 -14.71214,13.216 -1.77322,0 -3.25551,-0.1801 -4.44689,-0.5403 l 0,-6.1093 c 1.46844,0.4988 2.81221,0.7481 4.0313,0.7481 3.43559,0 6.01229,-2.0503 7.7301,-6.1508 l 3.4079,-8.0626 -16.62389,-42.47403 7.56387,0 11.51204,32.74903 c 0.13852,0.4156 0.42943,1.4962 0.87276,3.2417 l 0.24936,0 c 0.13851,-0.665 0.41557,-1.7178 0.83119,-3.1586 l 12.09388,-32.83213 z"/>
        <path id="path3054" style="font-size:85.11430359000000600px;font-family:Gisha;-inkscape-font-specification:Gisha;fill:#ffffff" d="m 361.93851,1023.8278 -6.8158,0 0,-6.6495 -0.16623,0 c -2.96462,5.098 -7.32839,7.647 -13.09132,7.647 -4.2391,0 -7.55695,-1.1222 -9.95355,-3.3664 -2.39661,-2.2442 -3.59492,-5.2226 -3.59491,-8.9353 -1e-5,-7.9518 4.68238,-12.57874 14.04718,-13.88097 l 12.75883,-1.78707 c -3e-5,-7.23135 -2.92306,-10.84705 -8.7691,-10.84708 -5.12571,3e-5 -9.75269,1.74554 -13.88094,5.23652 l 0,-6.98203 c 4.18366,-2.65978 9.00459,-3.98969 14.46278,-3.98974 10.00201,5e-5 15.00302,5.29198 15.00306,15.87582 z m -6.8158,-21.5279 -10.26525,1.413 c -3.15855,0.4433 -5.54131,1.226 -7.14827,2.3481 -1.60698,1.1222 -2.41047,3.1101 -2.41046,5.9639 -10e-6,2.078 0.74114,3.775 2.22344,5.091 1.48229,1.3161 3.45637,1.9741 5.92226,1.9741 3.38017,0 6.1716,-1.1844 8.37429,-3.5533 2.20263,-2.3689 3.30396,-5.3682 3.30399,-8.9977 z"/>
        <path id="path3056" style="font-size:85.11430359000000600px;font-family:Gisha;-inkscape-font-specification:Gisha;fill:#ffffff" d="m 410.18934,1023.8278 -6.81579,0 0,-24.27086 c -4e-5,-9.03227 -3.29711,-13.54843 -9.89122,-13.54846 -3.40792,3e-5 -6.22705,1.28146 -8.4574,3.84427 -2.23039,2.56288 -3.34557,5.79761 -3.34556,9.70419 l 0,24.27086 -6.81579,0 0,-42.55713 6.81579,0 0,7.06515 0.16624,0 c 3.21394,-5.37502 7.86862,-8.06254 13.96407,-8.06259 4.65465,5e-5 8.21493,1.50312 10.68084,4.50923 2.46584,3.00619 3.69878,7.34918 3.69882,13.02898 z"/>
      </g>
    </g>
  </g>
</svg>